<?xml version="1.0" encoding="UTF-8" standalone="no"?>
<!DOCTYPE svg PUBLIC "-//W3C//DTD SVG 1.1//EN"
 "http://www.w3.org/Graphics/SVG/1.1/DTD/svg11.dtd">
<!-- Generated by graphviz version 2.38.0 (20140413.2041)
 -->
<!-- Title: G Pages: 1 -->
<svg width="618pt" height="901pt"
 viewBox="0.00 0.00 618.21 901.00" xmlns="http://www.w3.org/2000/svg" xmlns:xlink="http://www.w3.org/1999/xlink">
<g id="graph0" class="graph" transform="scale(1 1) rotate(0) translate(4 897)">
<title>G</title>
<polygon fill="white" stroke="none" points="-4,4 -4,-897 614.207,-897 614.207,4 -4,4"/>
<g id="clust1" class="cluster"><title>cluster_Global</title>
<path fill="none" stroke="gray" d="M85.8034,-98C85.8034,-98 590.207,-98 590.207,-98 596.207,-98 602.207,-104 602.207,-110 602.207,-110 602.207,-873 602.207,-873 602.207,-879 596.207,-885 590.207,-885 590.207,-885 85.8034,-885 85.8034,-885 79.8034,-885 73.8034,-879 73.8034,-873 73.8034,-873 73.8034,-110 73.8034,-110 73.8034,-104 79.8034,-98 85.8034,-98"/>
<text text-anchor="middle" x="338.005" y="-872.2" font-family="Times,serif" font-size="11.00" fill="gray">Global</text>
</g>
<g id="clust2" class="cluster"><title>cluster_\Blackpulp</title>
<path fill="none" stroke="gray" d="M93.8034,-106C93.8034,-106 582.207,-106 582.207,-106 588.207,-106 594.207,-112 594.207,-118 594.207,-118 594.207,-846 594.207,-846 594.207,-852 588.207,-858 582.207,-858 582.207,-858 93.8034,-858 93.8034,-858 87.8034,-858 81.8034,-852 81.8034,-846 81.8034,-846 81.8034,-118 81.8034,-118 81.8034,-112 87.8034,-106 93.8034,-106"/>
<text text-anchor="middle" x="338.005" y="-845.2" font-family="Times,serif" font-size="11.00" fill="gray">Blackpulp</text>
</g>
<g id="clust3" class="cluster"><title>cluster_\Blackpulp\MinistryPlatform</title>
<path fill="none" stroke="gray" d="M101.803,-114C101.803,-114 574.207,-114 574.207,-114 580.207,-114 586.207,-120 586.207,-126 586.207,-126 586.207,-819 586.207,-819 586.207,-825 580.207,-831 574.207,-831 574.207,-831 101.803,-831 101.803,-831 95.8034,-831 89.8034,-825 89.8034,-819 89.8034,-819 89.8034,-126 89.8034,-126 89.8034,-120 95.8034,-114 101.803,-114"/>
<text text-anchor="middle" x="338.005" y="-818.2" font-family="Times,serif" font-size="11.00" fill="gray">MinistryPlatform</text>
</g>
<g id="clust4" class="cluster"><title>cluster_\Blackpulp\MinistryPlatform\Laravel</title>
<path fill="none" stroke="gray" d="M353.607,-733C353.607,-733 566.207,-733 566.207,-733 572.207,-733 578.207,-739 578.207,-745 578.207,-745 578.207,-792 578.207,-792 578.207,-798 572.207,-804 566.207,-804 566.207,-804 353.607,-804 353.607,-804 347.607,-804 341.607,-798 341.607,-792 341.607,-792 341.607,-745 341.607,-745 341.607,-739 347.607,-733 353.607,-733"/>
<text text-anchor="middle" x="459.907" y="-791.2" font-family="Times,serif" font-size="11.00" fill="gray">Laravel</text>
</g>
<g id="clust5" class="cluster"><title>cluster_\Blackpulp\MinistryPlatform\CoreTool</title>
<path fill="none" stroke="gray" d="M436.907,-654C436.907,-654 482.907,-654 482.907,-654 488.907,-654 494.907,-660 494.907,-666 494.907,-666 494.907,-713 494.907,-713 494.907,-719 488.907,-725 482.907,-725 482.907,-725 436.907,-725 436.907,-725 430.907,-725 424.907,-719 424.907,-713 424.907,-713 424.907,-666 424.907,-666 424.907,-660 430.907,-654 436.907,-654"/>
<text text-anchor="middle" x="459.907" y="-712.2" font-family="Times,serif" font-size="11.00" fill="gray">CoreTool</text>
</g>
<!-- \\Blackpulp\\MinistryPlatform\\Laravel\\MinistryPlatformServiceProvider -->
<g id="node1" class="node"><title>\\Blackpulp\\MinistryPlatform\\Laravel\\MinistryPlatformServiceProvider</title>
<polygon fill="none" stroke="black" points="570.007,-777 349.807,-777 349.807,-741 570.007,-741 570.007,-777"/>
<text text-anchor="middle" x="459.907" y="-755.167" font-family="Courier,monospace" font-size="11.00">MinistryPlatformServiceProvider</text>
</g>
<!-- \\Illuminate\\Support\\ServiceProvider -->
<g id="node14" class="node"><title>\\Illuminate\\Support\\ServiceProvider</title>
<ellipse fill="none" stroke="black" cx="138.803" cy="-72" rx="138.607" ry="18"/>
<text text-anchor="middle" x="138.803" y="-67.8" font-family="Times,serif" font-size="14.00" fill="gray">\Illuminate\Support\ServiceProvider</text>
</g>
<!-- \\Blackpulp\\MinistryPlatform\\Laravel\\MinistryPlatformServiceProvider&#45;&gt;\\Illuminate\\Support\\ServiceProvider -->
<g id="edge1" class="edge"><title>\\Blackpulp\\MinistryPlatform\\Laravel\\MinistryPlatformServiceProvider&#45;&gt;\\Illuminate\\Support\\ServiceProvider</title>
<path fill="none" stroke="black" d="M355.173,-740.956C350.173,-737.571 345.588,-733.616 341.607,-729 160.964,-519.564 456.285,-321.114 277.607,-110 269.904,-100.898 260.238,-93.8747 249.617,-88.4695"/>
<polygon fill="none" stroke="black" points="251.044,-85.2733 240.494,-84.2997 248.134,-91.6399 251.044,-85.2733"/>
</g>
<!-- \\Blackpulp\\MinistryPlatform\\CoreTool\\Base -->
<g id="node2" class="node"><title>\\Blackpulp\\MinistryPlatform\\CoreTool\\Base</title>
<polygon fill="none" stroke="black" points="486.907,-698 432.907,-698 432.907,-662 486.907,-662 486.907,-698"/>
<text text-anchor="middle" x="459.907" y="-676.167" font-family="Courier,monospace" font-size="11.00">Base</text>
</g>
<!-- \\Blackpulp\\MinistryPlatform\\FindContact -->
<g id="node3" class="node"><title>\\Blackpulp\\MinistryPlatform\\FindContact</title>
<polygon fill="none" stroke="black" points="504.008,-644 415.806,-644 415.806,-608 504.008,-608 504.008,-644"/>
<text text-anchor="middle" x="459.907" y="-622.167" font-family="Courier,monospace" font-size="11.00">FindContact</text>
</g>
<!-- \\Blackpulp\\MinistryPlatform\\User -->
<g id="node4" class="node"><title>\\Blackpulp\\MinistryPlatform\\User</title>
<polygon fill="none" stroke="black" points="486.907,-590 432.907,-590 432.907,-554 486.907,-554 486.907,-590"/>
<text text-anchor="middle" x="459.907" y="-568.167" font-family="Courier,monospace" font-size="11.00">User</text>
</g>
<!-- \\Blackpulp\\MinistryPlatform\\StoredProcedureResult -->
<g id="node5" class="node"><title>\\Blackpulp\\MinistryPlatform\\StoredProcedureResult</title>
<polygon fill="none" stroke="black" points="537.007,-536 382.806,-536 382.806,-500 537.007,-500 537.007,-536"/>
<text text-anchor="middle" x="459.907" y="-514.167" font-family="Courier,monospace" font-size="11.00">StoredProcedureResult</text>
</g>
<!-- \\Blackpulp\\MinistryPlatform\\Connection -->
<g id="node6" class="node"><title>\\Blackpulp\\MinistryPlatform\\Connection</title>
<polygon fill="none" stroke="black" points="179.803,-320 97.8034,-320 97.8034,-284 179.803,-284 179.803,-320"/>
<text text-anchor="middle" x="138.803" y="-298.167" font-family="Courier,monospace" font-size="11.00">Connection</text>
</g>
<!-- \\Blackpulp\\MinistryPlatform\\Table -->
<g id="node7" class="node"><title>\\Blackpulp\\MinistryPlatform\\Table</title>
<polygon fill="none" stroke="black" points="486.907,-482 432.907,-482 432.907,-446 486.907,-446 486.907,-482"/>
<text text-anchor="middle" x="459.907" y="-460.167" font-family="Courier,monospace" font-size="11.00">Table</text>
</g>
<!-- \\Blackpulp\\MinistryPlatform\\RecurringRecord -->
<g id="node8" class="node"><title>\\Blackpulp\\MinistryPlatform\\RecurringRecord</title>
<polygon fill="none" stroke="black" points="517.407,-428 402.407,-428 402.407,-392 517.407,-392 517.407,-428"/>
<text text-anchor="middle" x="459.907" y="-406.167" font-family="Courier,monospace" font-size="11.00">RecurringRecord</text>
</g>
<!-- \\Blackpulp\\MinistryPlatform\\Record -->
<g id="node9" class="node"><title>\\Blackpulp\\MinistryPlatform\\Record</title>
<polygon fill="none" stroke="black" points="487.508,-374 432.305,-374 432.305,-338 487.508,-338 487.508,-374"/>
<text text-anchor="middle" x="459.907" y="-352.167" font-family="Courier,monospace" font-size="11.00">Record</text>
</g>
<!-- \\Blackpulp\\MinistryPlatform\\Exception -->
<g id="node10" class="node"><title>\\Blackpulp\\MinistryPlatform\\Exception</title>
<polygon fill="none" stroke="black" points="497.808,-266 422.006,-266 422.006,-230 497.808,-230 497.808,-266"/>
<text text-anchor="middle" x="459.907" y="-244.167" font-family="Courier,monospace" font-size="11.00">Exception</text>
</g>
<!-- \\Exception -->
<g id="node15" class="node"><title>\\Exception</title>
<ellipse fill="none" stroke="black" cx="138.803" cy="-18" rx="48.3341" ry="18"/>
<text text-anchor="middle" x="138.803" y="-13.8" font-family="Times,serif" font-size="14.00" fill="gray">\Exception</text>
</g>
<!-- \\Blackpulp\\MinistryPlatform\\Exception&#45;&gt;\\Exception -->
<g id="edge2" class="edge"><title>\\Blackpulp\\MinistryPlatform\\Exception&#45;&gt;\\Exception</title>
<path fill="none" stroke="black" d="M421.979,-248.331C396.548,-246.64 363.522,-240.382 341.607,-221 279.259,-165.859 340.85,-99.1124 277.607,-45 255.597,-26.1675 224.332,-19.0004 197.144,-16.7269"/>
<polygon fill="none" stroke="black" points="197.153,-13.2205 186.952,-16.081 196.711,-20.2065 197.153,-13.2205"/>
</g>
<!-- \\Blackpulp\\MinistryPlatform\\MinistryPlatform -->
<g id="node11" class="node"><title>\\Blackpulp\\MinistryPlatform\\MinistryPlatform</title>
<polygon fill="none" stroke="black" points="520.508,-320 399.306,-320 399.306,-284 520.508,-284 520.508,-320"/>
<text text-anchor="middle" x="459.907" y="-298.167" font-family="Courier,monospace" font-size="11.00">MinistryPlatform</text>
</g>
<!-- \\Blackpulp\\MinistryPlatform\\MinistryPlatform&#45;&gt;\\Blackpulp\\MinistryPlatform\\Connection -->
<g id="edge3" class="edge"><title>\\Blackpulp\\MinistryPlatform\\MinistryPlatform&#45;&gt;\\Blackpulp\\MinistryPlatform\\Connection</title>
<path fill="none" stroke="black" d="M399.26,-302C338.974,-302 246.845,-302 190.129,-302"/>
<polygon fill="none" stroke="black" points="189.966,-298.5 179.966,-302 189.966,-305.5 189.966,-298.5"/>
</g>
<!-- \\Blackpulp\\MinistryPlatform\\File -->
<g id="node12" class="node"><title>\\Blackpulp\\MinistryPlatform\\File</title>
<polygon fill="none" stroke="black" points="486.907,-212 432.907,-212 432.907,-176 486.907,-176 486.907,-212"/>
<text text-anchor="middle" x="459.907" y="-190.167" font-family="Courier,monospace" font-size="11.00">File</text>
</g>
<!-- \\Blackpulp\\MinistryPlatform\\MPConfig -->
<g id="node13" class="node"><title>\\Blackpulp\\MinistryPlatform\\MPConfig</title>
<polygon fill="none" stroke="black" points="494.207,-158 425.607,-158 425.607,-122 494.207,-122 494.207,-158"/>
<text text-anchor="middle" x="459.907" y="-136.167" font-family="Courier,monospace" font-size="11.00">MPConfig</text>
</g>
</g>
</svg>
