<?xml version="1.0" encoding="UTF-8" standalone="no"?>
<!DOCTYPE svg PUBLIC "-//W3C//DTD SVG 1.1//EN"
 "http://www.w3.org/Graphics/SVG/1.1/DTD/svg11.dtd">
<!-- Generated by graphviz version 2.38.0 (20140413.2041)
 -->
<!-- Title: G Pages: 1 -->
<svg width="610pt" height="876pt"
 viewBox="0.00 0.00 610.21 876.00" xmlns="http://www.w3.org/2000/svg" xmlns:xlink="http://www.w3.org/1999/xlink">
<g id="graph0" class="graph" transform="scale(1 1) rotate(0) translate(4 872)">
<title>G</title>
<polygon fill="white" stroke="none" points="-4,4 -4,-872 606.207,-872 606.207,4 -4,4"/>
<g id="clust1" class="cluster"><title>cluster_Global</title>
<path fill="none" stroke="gray" d="M85.8034,-98C85.8034,-98 582.207,-98 582.207,-98 588.207,-98 594.207,-104 594.207,-110 594.207,-110 594.207,-848 594.207,-848 594.207,-854 588.207,-860 582.207,-860 582.207,-860 85.8034,-860 85.8034,-860 79.8034,-860 73.8034,-854 73.8034,-848 73.8034,-848 73.8034,-110 73.8034,-110 73.8034,-104 79.8034,-98 85.8034,-98"/>
<text text-anchor="middle" x="334.005" y="-847.2" font-family="Times,serif" font-size="11.00" fill="gray">Global</text>
</g>
<g id="clust2" class="cluster"><title>cluster_\Blackpulp</title>
<path fill="none" stroke="gray" d="M93.8034,-106C93.8034,-106 574.207,-106 574.207,-106 580.207,-106 586.207,-112 586.207,-118 586.207,-118 586.207,-821 586.207,-821 586.207,-827 580.207,-833 574.207,-833 574.207,-833 93.8034,-833 93.8034,-833 87.8034,-833 81.8034,-827 81.8034,-821 81.8034,-821 81.8034,-118 81.8034,-118 81.8034,-112 87.8034,-106 93.8034,-106"/>
<text text-anchor="middle" x="334.005" y="-820.2" font-family="Times,serif" font-size="11.00" fill="gray">Blackpulp</text>
</g>
<g id="clust3" class="cluster"><title>cluster_\Blackpulp\MinistryPlatform</title>
<path fill="none" stroke="gray" d="M101.803,-114C101.803,-114 566.207,-114 566.207,-114 572.207,-114 578.207,-120 578.207,-126 578.207,-126 578.207,-794 578.207,-794 578.207,-800 572.207,-806 566.207,-806 566.207,-806 101.803,-806 101.803,-806 95.8034,-806 89.8034,-800 89.8034,-794 89.8034,-794 89.8034,-126 89.8034,-126 89.8034,-120 95.8034,-114 101.803,-114"/>
<text text-anchor="middle" x="334.005" y="-793.2" font-family="Times,serif" font-size="11.00" fill="gray">MinistryPlatform</text>
</g>
<g id="clust4" class="cluster"><title>cluster_\Blackpulp\MinistryPlatform\CoreTool</title>
<path fill="none" stroke="gray" d="M436.907,-708C436.907,-708 482.907,-708 482.907,-708 488.907,-708 494.907,-714 494.907,-720 494.907,-720 494.907,-767 494.907,-767 494.907,-773 488.907,-779 482.907,-779 482.907,-779 436.907,-779 436.907,-779 430.907,-779 424.907,-773 424.907,-767 424.907,-767 424.907,-720 424.907,-720 424.907,-714 430.907,-708 436.907,-708"/>
<text text-anchor="middle" x="459.907" y="-766.2" font-family="Times,serif" font-size="11.00" fill="gray">CoreTool</text>
</g>
<!-- \\Blackpulp\\MinistryPlatform\\CoreTool\\Base -->
<g id="node1" class="node"><title>\\Blackpulp\\MinistryPlatform\\CoreTool\\Base</title>
<polygon fill="none" stroke="black" points="486.907,-752 432.907,-752 432.907,-716 486.907,-716 486.907,-752"/>
<text text-anchor="middle" x="459.907" y="-730.167" font-family="Courier,monospace" font-size="11.00">Base</text>
</g>
<!-- \\Blackpulp\\MinistryPlatform\\FindContact -->
<g id="node2" class="node"><title>\\Blackpulp\\MinistryPlatform\\FindContact</title>
<polygon fill="none" stroke="black" points="504.008,-698 415.806,-698 415.806,-662 504.008,-662 504.008,-698"/>
<text text-anchor="middle" x="459.907" y="-676.167" font-family="Courier,monospace" font-size="11.00">FindContact</text>
</g>
<!-- \\Blackpulp\\MinistryPlatform\\User -->
<g id="node3" class="node"><title>\\Blackpulp\\MinistryPlatform\\User</title>
<polygon fill="none" stroke="black" points="486.907,-644 432.907,-644 432.907,-608 486.907,-608 486.907,-644"/>
<text text-anchor="middle" x="459.907" y="-622.167" font-family="Courier,monospace" font-size="11.00">User</text>
</g>
<!-- \\Blackpulp\\MinistryPlatform\\MinistryPlatformServiceProvider -->
<g id="node4" class="node"><title>\\Blackpulp\\MinistryPlatform\\MinistryPlatformServiceProvider</title>
<polygon fill="none" stroke="black" points="570.007,-266 349.807,-266 349.807,-230 570.007,-230 570.007,-266"/>
<text text-anchor="middle" x="459.907" y="-244.167" font-family="Courier,monospace" font-size="11.00">MinistryPlatformServiceProvider</text>
</g>
<!-- \\Illuminate\\Support\\ServiceProvider -->
<g id="node14" class="node"><title>\\Illuminate\\Support\\ServiceProvider</title>
<ellipse fill="none" stroke="black" cx="138.803" cy="-72" rx="138.607" ry="18"/>
<text text-anchor="middle" x="138.803" y="-67.8" font-family="Times,serif" font-size="14.00" fill="gray">\Illuminate\Support\ServiceProvider</text>
</g>
<!-- \\Blackpulp\\MinistryPlatform\\MinistryPlatformServiceProvider&#45;&gt;\\Illuminate\\Support\\ServiceProvider -->
<g id="edge1" class="edge"><title>\\Blackpulp\\MinistryPlatform\\MinistryPlatformServiceProvider&#45;&gt;\\Illuminate\\Support\\ServiceProvider</title>
<path fill="none" stroke="black" d="M364.926,-229.978C359.542,-227.376 354.383,-224.401 349.607,-221 301.707,-186.892 325.044,-144.749 277.607,-110 265.536,-101.158 251.507,-94.3728 237.112,-89.1664"/>
<polygon fill="none" stroke="black" points="238.211,-85.8433 227.616,-85.9673 235.976,-92.4769 238.211,-85.8433"/>
</g>
<!-- \\Blackpulp\\MinistryPlatform\\StoredProcedureResult -->
<g id="node5" class="node"><title>\\Blackpulp\\MinistryPlatform\\StoredProcedureResult</title>
<polygon fill="none" stroke="black" points="537.007,-536 382.806,-536 382.806,-500 537.007,-500 537.007,-536"/>
<text text-anchor="middle" x="459.907" y="-514.167" font-family="Courier,monospace" font-size="11.00">StoredProcedureResult</text>
</g>
<!-- \\Blackpulp\\MinistryPlatform\\Connection -->
<g id="node6" class="node"><title>\\Blackpulp\\MinistryPlatform\\Connection</title>
<polygon fill="none" stroke="black" points="179.803,-590 97.8034,-590 97.8034,-554 179.803,-554 179.803,-590"/>
<text text-anchor="middle" x="138.803" y="-568.167" font-family="Courier,monospace" font-size="11.00">Connection</text>
</g>
<!-- \\Blackpulp\\MinistryPlatform\\Table -->
<g id="node7" class="node"><title>\\Blackpulp\\MinistryPlatform\\Table</title>
<polygon fill="none" stroke="black" points="486.907,-482 432.907,-482 432.907,-446 486.907,-446 486.907,-482"/>
<text text-anchor="middle" x="459.907" y="-460.167" font-family="Courier,monospace" font-size="11.00">Table</text>
</g>
<!-- \\Blackpulp\\MinistryPlatform\\RecurringRecord -->
<g id="node8" class="node"><title>\\Blackpulp\\MinistryPlatform\\RecurringRecord</title>
<polygon fill="none" stroke="black" points="517.407,-428 402.407,-428 402.407,-392 517.407,-392 517.407,-428"/>
<text text-anchor="middle" x="459.907" y="-406.167" font-family="Courier,monospace" font-size="11.00">RecurringRecord</text>
</g>
<!-- \\Blackpulp\\MinistryPlatform\\Config -->
<g id="node9" class="node"><title>\\Blackpulp\\MinistryPlatform\\Config</title>
<polygon fill="none" stroke="black" points="487.508,-374 432.305,-374 432.305,-338 487.508,-338 487.508,-374"/>
<text text-anchor="middle" x="459.907" y="-352.167" font-family="Courier,monospace" font-size="11.00">Config</text>
</g>
<!-- \\Blackpulp\\MinistryPlatform\\Record -->
<g id="node10" class="node"><title>\\Blackpulp\\MinistryPlatform\\Record</title>
<polygon fill="none" stroke="black" points="487.508,-320 432.305,-320 432.305,-284 487.508,-284 487.508,-320"/>
<text text-anchor="middle" x="459.907" y="-298.167" font-family="Courier,monospace" font-size="11.00">Record</text>
</g>
<!-- \\Blackpulp\\MinistryPlatform\\Exception -->
<g id="node11" class="node"><title>\\Blackpulp\\MinistryPlatform\\Exception</title>
<polygon fill="none" stroke="black" points="497.808,-212 422.006,-212 422.006,-176 497.808,-176 497.808,-212"/>
<text text-anchor="middle" x="459.907" y="-190.167" font-family="Courier,monospace" font-size="11.00">Exception</text>
</g>
<!-- \\Exception -->
<g id="node15" class="node"><title>\\Exception</title>
<ellipse fill="none" stroke="black" cx="138.803" cy="-18" rx="48.3341" ry="18"/>
<text text-anchor="middle" x="138.803" y="-13.8" font-family="Times,serif" font-size="14.00" fill="gray">\Exception</text>
</g>
<!-- \\Blackpulp\\MinistryPlatform\\Exception&#45;&gt;\\Exception -->
<g id="edge2" class="edge"><title>\\Blackpulp\\MinistryPlatform\\Exception&#45;&gt;\\Exception</title>
<path fill="none" stroke="black" d="M422.155,-192.073C399.362,-189.254 370.538,-182.581 349.607,-167 299.103,-129.405 329.011,-81.3545 277.607,-45 254.5,-28.6582 224.012,-21.5853 197.589,-18.7354"/>
<polygon fill="none" stroke="black" points="197.581,-15.2207 187.308,-17.812 196.955,-22.1927 197.581,-15.2207"/>
</g>
<!-- \\Blackpulp\\MinistryPlatform\\MinistryPlatform -->
<g id="node12" class="node"><title>\\Blackpulp\\MinistryPlatform\\MinistryPlatform</title>
<polygon fill="none" stroke="black" points="520.508,-590 399.306,-590 399.306,-554 520.508,-554 520.508,-590"/>
<text text-anchor="middle" x="459.907" y="-568.167" font-family="Courier,monospace" font-size="11.00">MinistryPlatform</text>
</g>
<!-- \\Blackpulp\\MinistryPlatform\\MinistryPlatform&#45;&gt;\\Blackpulp\\MinistryPlatform\\Connection -->
<g id="edge3" class="edge"><title>\\Blackpulp\\MinistryPlatform\\MinistryPlatform&#45;&gt;\\Blackpulp\\MinistryPlatform\\Connection</title>
<path fill="none" stroke="black" d="M399.26,-572C338.974,-572 246.845,-572 190.129,-572"/>
<polygon fill="none" stroke="black" points="189.966,-568.5 179.966,-572 189.966,-575.5 189.966,-568.5"/>
</g>
<!-- \\Blackpulp\\MinistryPlatform\\File -->
<g id="node13" class="node"><title>\\Blackpulp\\MinistryPlatform\\File</title>
<polygon fill="none" stroke="black" points="486.907,-158 432.907,-158 432.907,-122 486.907,-122 486.907,-158"/>
<text text-anchor="middle" x="459.907" y="-136.167" font-family="Courier,monospace" font-size="11.00">File</text>
</g>
</g>
</svg>
